<svg width="1527" height="1024" viewBox="0 0 1527 1024" fill="none" xmlns="http://www.w3.org/2000/svg">
<path d="M1084 261.834C883.84 239.664 683.76 238.734 483.41 262.074C493.537 256.234 503.674 250.394 513.82 244.554C560.614 217.754 607.41 190.968 654.21 164.194C687.45 145.214 720.727 126.304 754.04 107.464C760.707 103.684 767.333 99.851 773.92 95.9644C776.18 94.6344 778.02 94.7043 780.37 96.0243C812.017 113.744 843.704 131.411 875.43 149.024C888.04 156.024 900.67 163.024 914.07 170.414C914.07 158.744 914.32 147.834 913.95 136.944C913.8 132.284 914.74 130.684 919.81 130.804C934.96 131.164 950.12 131.054 965.28 130.804C969.53 130.734 971 131.634 970.93 136.214C970.65 155.214 970.93 174.214 970.71 193.214C970.71 197.274 972.06 199.394 975.57 201.334C1010.51 220.668 1045.4 240.104 1080.23 259.644C1081.51 260.264 1082.74 261.064 1084 261.834Z" fill="#7B7D7F"/>
<path d="M671.92 434.924C670.81 436.924 668.92 435.924 667.46 435.924C609.82 435.924 552.19 435.794 494.56 435.924C490.26 435.924 488.92 435.034 488.94 430.504C489.13 392.864 489 355.214 489.06 317.574C489.06 294.514 508.75 274.094 531.83 273.924C577.31 273.604 622.83 273.804 668.26 273.734C670.75 273.734 672.2 273.914 672.19 277.114C672.063 326.914 672.003 376.714 672.01 426.514C671.988 426.682 671.948 426.846 671.89 427.004C669.19 428.354 667.89 426.104 666.52 424.674C659.52 417.344 652.9 409.674 646.22 402.064C634.28 388.464 622.42 374.784 610.22 361.444C600.89 351.294 592.22 340.534 582.77 330.534C576.28 323.684 571.01 315.654 563.07 310.224C561.46 308.784 560.07 307.494 558.58 310.534C550.5 327.124 540.89 342.964 533.93 360.114C530.62 368.274 529.04 376.684 531.2 385.484C532.69 392.215 536.578 398.172 542.14 402.244C544.02 403.624 545.93 404.984 547.14 407.104C553.08 414.914 559.58 422.264 565.29 430.224C567.46 433.224 570.43 433.474 573.67 433.474C592.943 433.474 612.213 433.474 631.48 433.474C642.78 433.474 654.08 433.474 665.37 433.474C667.6 433.414 669.99 433.184 671.92 434.924Z" fill="#F74844"/>
<path d="M953.92 550.904C948.54 559.094 940.48 563.554 931.61 566.834C924.33 569.524 916.5 570.834 910.18 575.834C898.55 585.064 893.49 597.424 892.51 611.894C892.37 613.894 893.31 617.764 890.44 617.564C887.57 617.364 889.16 613.674 889.15 611.624C889.01 559.324 889.05 507.014 888.84 454.714C888.84 449.944 889.6 448.294 894.94 448.304C954.273 448.464 1013.58 448.397 1072.85 448.104C1077.68 448.104 1078.85 449.384 1078.85 454.184C1078.65 492.494 1078.76 530.814 1078.71 569.124C1078.71 583.014 1073.32 595.124 1065.78 607.784C1064.78 603.234 1064.22 599.854 1063.39 596.544C1059.14 579.544 1047.21 570.774 1030.84 568.334C1020.08 566.724 1012.36 560.604 1004.23 554.624C1001.95 552.944 1002.14 550.394 1002.67 548.214C1004.6 540.354 1006.2 532.454 1011.67 525.804C1015.49 521.154 1016.08 515.074 1014.67 509.184C1013.85 505.786 1013.67 502.266 1014.15 498.804C1017.79 472.554 995.15 451.254 968.94 456.234C962.876 457.379 957.182 459.984 952.35 463.824C941.44 472.394 939.51 483.824 942.35 496.534C943.26 500.674 943.63 504.534 942.07 508.734C941.069 511.332 940.755 514.145 941.158 516.9C941.561 519.655 942.667 522.26 944.37 524.464C950.02 531.764 951.95 540.214 953.94 548.784C954.214 549.07 954.364 549.452 954.361 549.848C954.357 550.244 954.199 550.622 953.92 550.904Z" fill="#6B6B6C"/>
<path d="M576.99 618.915C561.99 618.915 546.99 619.585 532.05 618.815C511.35 617.745 492.82 599.095 490.05 577.665C489.524 573.873 489.237 570.053 489.19 566.225C489.11 529.225 489.19 492.225 489.01 455.285C489.01 451.035 490.3 450.035 494.33 450.045C552.137 450.172 609.94 450.218 667.74 450.185C670.04 450.185 672.39 449.665 672.34 453.475C672.11 472.625 672.07 491.775 671.97 510.915C669.7 511.475 668.61 509.755 667.62 508.355C661.62 499.925 654.05 492.605 649.62 483.055C649.24 483.445 649.14 484.185 648.35 484.055C645.79 479.325 641.88 479.235 636.97 479.745C618.63 481.655 605.5 491.375 595.5 506.145C592.64 510.355 591.26 515.145 590.5 520.145C590.23 521.765 590.4 523.505 589.28 524.895C588.28 525.115 587.1 524.815 587.28 526.655C587.525 528.933 587.505 531.232 587.22 533.505C587.03 534.955 587.42 537.055 584.82 536.925C582.93 534.055 583.82 530.815 583.71 527.745C583.53 521.795 583.62 521.795 577.8 523.125C577.161 523.285 576.508 523.385 575.85 523.425C572.99 523.265 571.6 521.155 570.07 519.155C567.46 515.755 565.45 511.895 562.16 509.025C559.38 505.115 557.16 500.845 553.92 497.215C550.05 492.795 548.13 493.105 545.77 498.355C541.77 507.355 543.43 515.875 547.77 524.215C548.091 525.138 548.561 526.003 549.16 526.775C550.42 528.395 551.6 530.195 549.51 531.875C547.42 533.555 545.51 532.315 544.1 530.525C543.263 529.309 542.012 528.438 540.58 528.075C538.47 527.435 536.83 526.005 535.1 524.735C530.072 521.187 524.22 518.984 518.1 518.335C515.1 517.945 513.48 518.235 514.63 522.215C517.56 532.335 522.16 541.215 530.5 547.985C531.728 548.84 532.769 549.936 533.56 551.205C538.1 558.765 544.31 565.035 549.71 571.935C553.27 576.485 556.83 581.075 560.71 585.355C565.8 590.915 567.02 597.495 565.71 604.705C565.5 605.845 565.6 606.985 565.47 608.125C566.02 607.025 564.78 605.395 566.47 604.635C568.78 605.165 568.2 610.005 571.25 608.525C573.78 607.305 572.25 603.985 572.69 601.645C573.13 599.305 571.24 595.875 575.34 594.925C576.88 597.185 576.43 599.745 576.44 602.205C576.44 605.725 576.51 609.065 578.93 612.095C581.03 614.845 579.15 617.065 576.99 618.915Z" fill="#5EB11C"/>
<path d="M804.6 435.575C800.6 435.575 796.6 435.695 792.6 435.695C759.78 435.695 726.96 435.695 694.14 435.795C690.4 435.795 688.98 435.075 688.99 430.895C689.17 380.228 689.196 329.585 689.07 278.965C689.07 274.895 690.07 273.635 694.3 273.645C751.633 273.771 808.94 273.771 866.22 273.645C869.96 273.645 871.38 274.355 871.31 278.495C871 298.975 871.03 319.495 870.95 339.945C870.562 340.106 870.129 340.118 869.733 339.978C869.337 339.837 869.008 339.554 868.81 339.185C863.95 332.605 857.81 327.245 852.01 321.555C845.64 297.225 820.82 290.555 802.01 293.995C794.51 295.365 787.2 297.775 779.33 296.555C775.65 295.995 773.56 298.555 773.27 302.325C772.95 306.485 774.34 310.185 776.2 313.775C777.162 317.286 778.902 320.536 781.29 323.285C788.78 332.765 796.61 341.975 803.76 351.745C804.505 354.894 804.505 358.175 803.76 361.325C803.572 361.815 803.259 362.248 802.852 362.58C802.445 362.911 801.958 363.13 801.44 363.215C796.44 357.155 791.01 351.415 785.66 345.625C778.82 338.215 772.19 330.625 765.57 322.985C764.73 321.985 765.1 319.045 762.32 320.135C760.56 319.215 760.76 317.335 760.21 315.825C757.83 309.255 753.31 304.545 747.33 301.185C745.8 300.325 743.73 299.185 742.21 300.635C740.69 302.085 741.82 304.115 742.6 305.735C744.11 308.875 746 311.845 747.27 315.105C748.27 317.755 749.13 320.455 748.16 323.345C746.43 328.485 740.74 330.505 735.95 327.635C733.01 325.865 731.24 323.015 729.27 320.335C727.63 318.115 726.04 315.035 722.64 316.335C719.24 317.635 718.19 320.875 718.34 324.145C718.65 330.735 720.13 337.005 725.21 341.805C726.112 342.544 726.922 343.39 727.62 344.325C735.05 355.165 743.68 365.085 751.74 375.435C765.43 393.005 779.8 410.035 793.11 427.895C795.58 431.215 797.98 434.225 802.68 433.895C803.54 433.855 804.77 434.115 804.6 435.575Z" fill="#F98601"/>
<path d="M1026.71 435.555C998.043 435.608 969.397 435.655 940.77 435.695C925.11 435.695 909.45 435.555 893.77 435.805C889.68 435.875 888.77 434.535 888.77 430.705C888.91 379.905 888.943 329.102 888.87 278.295C888.87 274.935 889.59 273.705 893.22 273.715C941.03 273.815 988.84 273.615 1036.65 273.805C1057.96 273.895 1077.89 293.095 1078.3 315.245C1079.02 354.545 1078.57 393.865 1078.57 433.175C1078.45 433.798 1078.23 434.397 1077.91 434.945C1075.83 432.945 1076.44 430.295 1076.43 427.875C1076.37 406.875 1076.33 385.875 1076.43 364.935C1076.54 362.87 1076.24 360.803 1075.54 358.856C1074.85 356.908 1073.77 355.12 1072.37 353.595C1061.08 341.175 1050.75 327.925 1039.24 314.595C1039.18 318.735 1039.44 322.165 1039.11 325.595C1038.96 327.255 1039.71 329.855 1036.52 329.775C1034.34 325.775 1035.73 321.345 1035.32 317.125C1035.08 314.585 1035.95 311.835 1033.86 309.245C1031.69 310.875 1032.48 313.145 1032.29 315.085C1031.82 319.965 1033.35 325.005 1031.11 329.745C1027.87 329.965 1028.59 327.305 1028.48 325.745C1028.14 320.985 1028.48 316.185 1028.3 311.415C1028.15 307.595 1027.41 303.965 1023.58 301.915C1020.52 299.915 1017.16 299.495 1013.58 299.495C987.13 299.555 960.68 299.495 934.23 299.495C926.07 299.495 925.56 300.215 925.35 308.325C925.17 314.945 926.23 321.615 924.58 328.175C922.45 330.295 921.75 327.855 921.86 326.865C922.47 321.215 918.86 317.515 916.05 313.455C915.46 312.335 915.28 310.735 913.45 310.995C912.797 311.126 912.194 311.436 911.707 311.89C911.219 312.343 910.867 312.923 910.69 313.565C910.344 314.499 910.178 315.489 910.2 316.485C910.14 322.275 910 328.075 910.2 333.855C910.4 339.635 913.71 343.695 919.2 345.595C922.77 346.815 926.65 347.255 929.72 349.735C933.39 357.135 939.81 362.365 944.89 368.645C947.67 372.075 950.24 375.795 954.17 378.855C954.81 376.855 954.22 374.985 954.9 373.365C955.74 371.365 956.72 370.985 957.75 373.275C958.83 385.405 958.09 397.555 958.19 409.685C958.19 414.005 958.72 417.955 961.92 421.135C964.04 429.785 968.51 433.385 977.21 433.395C991.47 433.395 1005.74 433.335 1020.01 433.455C1022.46 433.495 1025.3 432.525 1026.71 435.555Z" fill="#FDB601"/>
<path d="M764.76 619.075C740.76 619.245 716.76 619.335 692.82 619.635C688.35 619.695 689.19 616.845 689.19 614.315C689.15 576.981 689.13 539.675 689.13 502.395C689.13 486.395 689.21 470.395 689.01 454.395C689.01 450.855 690.01 449.935 693.51 449.945C751.47 450.038 809.43 450.038 867.39 449.945C869.8 449.945 871.93 449.655 871.91 453.355C871.764 493.155 871.687 532.951 871.68 572.745C871.567 572.82 871.439 572.87 871.305 572.89C871.171 572.91 871.033 572.9 870.903 572.861C870.773 572.821 870.654 572.754 870.553 572.663C870.452 572.572 870.373 572.46 870.32 572.335C869.41 570.545 869.6 568.605 869.54 566.695C869.54 552.915 869.46 539.125 869.54 525.345C869.622 523.361 869.287 521.382 868.557 519.535C867.827 517.689 866.717 516.016 865.3 514.625C860.65 509.875 856.83 504.405 852.67 499.225C851.55 497.835 850.82 496.025 848.89 495.425C846.96 494.825 846.78 493.075 846.23 491.565C844.845 488.218 842.805 485.182 840.23 482.635C836.56 478.725 835 478.955 832.07 483.455C827.79 486.665 824.34 484.095 820.83 481.855C818.76 479.095 816.83 479.265 814.27 481.555C811.39 484.145 810.19 487.985 807.14 490.365C804.14 490.935 803.92 493.245 803.8 495.645C803.68 498.045 802.96 500.315 800.51 501.275C798.06 502.235 796.43 500.545 794.88 499.055C792.555 496.956 790.122 494.979 787.59 493.135C785.25 491.295 783.71 489.135 783.99 485.955C784.08 480.745 783.31 479.545 778.33 479.415C766.56 479.105 754.78 479.155 743 479.415C742.663 479.414 742.328 479.455 742 479.535C739.63 480.125 736.34 480.265 736.44 483.375C736.54 486.805 739.92 486.225 742.28 486.375C745.43 486.555 748.59 486.435 751.74 486.455C755.44 486.455 757.24 488.255 757.26 491.935C757.253 492.763 757.297 493.591 757.39 494.415C757.94 498.705 759.01 499.355 763.29 497.995C763.582 497.848 763.901 497.766 764.228 497.753C764.554 497.741 764.879 497.8 765.18 497.925C765.864 498.91 766.141 500.121 765.955 501.305C765.769 502.49 765.133 503.557 764.18 504.285C761.43 505.745 758.31 505.215 755.41 505.915C750.26 507.165 748.7 508.915 748.41 514.075C747.85 522.735 747.31 523.255 738.62 523.295C732.96 523.295 727.3 523.215 721.62 523.295C715 523.425 711.51 526.165 710.76 532.555C710.054 540.013 710.007 547.518 710.62 554.985C710.85 558.735 713.32 560.915 716.89 561.875C718.66 562.355 720.53 562.285 722.28 562.875C723.066 563.127 723.764 563.596 724.295 564.227C724.826 564.859 725.167 565.628 725.28 566.445C722.73 571.815 719.28 576.675 716.68 582.055C715.09 585.405 714.68 588.695 716.55 592.055C717.464 593.638 718.866 594.883 720.545 595.604C722.225 596.325 724.093 596.483 725.87 596.055C729.48 595.055 732.32 590.725 732.24 586.325C732.24 584.215 731.24 582.075 732.46 580.005C736.46 579.005 737.97 582.485 739.7 584.705C746.03 592.835 752.7 600.705 758.82 608.995C761.05 611.995 764.16 614.505 765.15 618.385L764.76 619.075Z" fill="#0092B2"/>
<path d="M1037.03 329.885C1039.14 324.325 1037.03 318.465 1038.29 312.115C1044.69 317.565 1049.14 324.115 1054.29 330.015C1061.29 338.015 1067.82 346.305 1074.84 354.205C1075.87 355.262 1076.67 356.514 1077.21 357.889C1077.74 359.263 1077.99 360.731 1077.95 362.205C1077.87 386.465 1077.95 410.735 1077.95 434.995C1069.18 435.875 1060.37 435.165 1051.59 435.395C1049.76 435.331 1047.93 435.378 1046.11 435.535H1026.74C1025.08 434.395 1023.2 434.935 1021.43 434.935C1005.03 434.935 988.63 434.935 972.23 434.935C967.96 434.935 960.52 426.435 960.96 422.155C960.96 422.025 961.56 421.965 961.87 421.875C963.87 420.275 966.04 421.325 968.13 421.415C977.58 421.855 980.91 418.195 980.01 408.925C979.25 401.145 981.01 393.365 980.53 385.535C980.3 382.225 980.59 378.885 980.41 375.535C980.24 372.395 978.94 370.055 975.65 369.375C972.14 368.645 970.56 366.375 970.55 363.005C970.55 357.005 967 354.005 961.8 352.285C953.72 349.685 945.61 347.195 937.34 345.285C932.804 344.233 928.339 342.897 923.97 341.285C921.25 340.285 918.5 338.905 917.47 336.155C914.55 328.732 914.408 320.504 917.07 312.985C917.39 313.545 917.58 314.435 918.07 314.605C924.54 316.985 922.64 322.545 923.07 327.265C923.238 327.879 923.509 328.46 923.87 328.985C954.46 329.885 985.05 329.195 1015.64 329.365C1022.64 329.365 1023.31 328.645 1023.38 321.645C1023.43 317.155 1023.38 312.645 1023.38 308.175C1023.38 306.045 1023.18 303.805 1024.88 302.055C1028.09 303.175 1029.88 305.665 1029.95 309.445C1030.02 314.725 1029.95 320.005 1029.95 325.285C1029.95 326.875 1029.44 328.625 1030.87 329.965C1032.92 329.727 1034.98 329.7 1037.03 329.885Z" fill="#EA9001"/>
<path d="M576.99 618.915C577.92 616.045 580.42 613.105 575.79 610.825C574.31 610.095 575 607.825 574.95 606.175C574.84 602.405 574.85 598.625 574.8 594.845C573.49 593.485 573.61 591.774 573.8 590.134C575.31 574.704 579.74 560.475 590.8 548.955C595.035 544.668 600.365 541.628 606.21 540.165C618.9 536.635 629.82 530.524 637.81 519.644C644.28 510.834 647.09 500.984 647.65 490.274C647.76 488.154 647.23 485.915 648.78 484.045C649.28 481.825 649.89 482.915 650.66 483.935C656.38 491.545 662.17 499.104 667.86 506.744C668.917 508.411 670.318 509.833 671.97 510.915C672.08 524.395 672.26 537.914 672.28 551.354C672.28 572.514 672.28 593.665 672.22 614.815C672.22 617.055 672.86 619.384 668.95 619.354C638.27 619.094 607.63 619.035 576.99 618.915Z" fill="#327D1D"/>
<path d="M563.92 309.805C568.37 310.925 570.43 314.935 573.17 317.925C583.27 328.925 593.05 340.205 602.94 351.395C615.14 365.195 627.29 379.045 639.54 392.795C649.03 403.465 658.65 414.015 668.22 424.605C669.22 425.705 670.22 426.895 671.9 426.945V434.945H570.47C568.47 434.945 566.76 434.945 565.26 432.945C559.05 424.755 552.62 416.725 546.26 408.655C545.68 407.935 545.26 407.315 546.26 406.655C548.06 405.505 549.78 406.505 551.53 406.845C557.47 407.995 563.53 408.295 569.32 406.765C586.79 402.155 594.77 386.765 589.83 367.565C588.441 362.079 586.427 356.771 583.83 351.745C577.78 340.095 572.39 328.115 565.83 316.745C564.76 314.635 562.92 312.575 563.92 309.805Z" fill="#CB201D"/>
<path d="M802.78 350.913C796.21 345.083 791.21 337.913 786.07 330.913C782.67 326.303 777.63 322.833 775.94 316.983C775.71 316.193 775.17 315.453 776.19 314.853C781.48 314.553 786.79 314.473 791.83 312.383C793.83 311.563 795.22 312.833 796.66 314.113C804 320.623 811.94 321.363 819.78 315.523C825.99 310.893 831.89 311.423 838.5 314.213C843.57 316.353 847.22 321.003 852.88 321.953C860.56 326.293 865.45 333.463 870.98 339.953C871.08 360.98 871.173 382.017 871.26 403.063C871.26 409.013 871.09 414.973 871 420.933C868.79 421.633 868.18 419.673 867.15 418.543C852.85 402.823 838.33 387.293 824.67 371.003C823.606 369.963 822.433 369.041 821.17 368.253C818.29 364.363 817.43 360.013 817.44 355.253C817.44 348.173 818.23 341.053 816.88 334.013C816.765 333.533 816.685 333.045 816.64 332.553C816.05 326.043 816.05 326.263 809.7 326.363C805.53 326.433 804.23 328.293 804.36 332.153C804.51 336.593 804.46 341.053 804.36 345.493C804.31 347.413 804.57 349.413 802.78 350.913Z" fill="#E97501"/>
<path d="M822.85 368.954C827.01 369.134 827.64 373.254 829.79 375.534C837.6 383.804 844.92 392.534 852.54 400.984C858.61 407.714 864.84 414.284 871 420.924C872.14 435.814 872.14 435.834 857.34 435.784C839.76 435.737 822.18 435.667 804.6 435.574C797.37 436.184 794.2 431.144 790.35 426.194C773.59 404.614 756.4 383.384 739.5 361.914C735.13 356.354 730.22 351.174 726.9 344.844C730.76 343.434 733.61 347.154 737.33 346.844C743.33 346.354 746.4 350.354 749.33 354.844C757.5 367.374 765.09 380.264 773.58 392.594C774.33 393.684 775.03 394.824 775.82 395.894C779.27 400.544 782.1 401.414 786.38 399.164C791.63 396.404 793.38 392.384 791.79 387.274C791.12 385.184 789.13 383.204 791.02 380.784C797.5 378.784 798.23 379.264 798.29 385.934C798.35 393.364 798.29 400.794 798.29 408.234C798.193 410.216 798.447 412.2 799.04 414.094C799.34 418.014 801.51 419.564 805.36 419.344C808.01 419.194 810.68 419.344 813.36 419.344C820.96 419.344 821.36 418.964 821.36 411.544C821.36 399.724 821.36 387.894 821.36 376.074C821.42 373.644 820.92 371.034 822.85 368.954Z" fill="#CF4900"/>
<path d="M953.92 550.903C953.92 550.213 953.92 549.513 953.92 548.823C954.691 542.167 953.31 535.438 949.98 529.623C947.93 525.883 944.71 522.873 943.71 518.423C942.88 514.733 942.65 511.423 944.25 507.823C945.72 504.453 945 500.743 944.09 497.093C939.09 477.253 947.75 465.463 965.09 459.093C965.65 458.883 966.35 459.093 968.09 459.093C951.09 467.763 951.24 482.633 952.09 497.473C952.71 508.873 957.09 519.313 961.73 529.653C966.401 540.231 974.419 548.98 984.55 554.553C986.8 555.823 986.82 556.483 985.2 558.003C984.551 558.526 983.97 559.127 983.47 559.793C979.91 565.423 975.21 565.363 969.76 562.793C966 561.053 962.1 559.603 958.19 558.223C955.63 557.323 953.19 556.763 955.47 553.223C956.28 551.993 955.53 550.953 953.92 550.903Z" fill="#C9C9CA"/>
<path d="M959.15 567.844C974.15 579.524 988.7 580.153 1002.77 566.523C999.46 573.523 994.88 578.843 990.32 584.133C987.64 587.233 987.51 590.223 988.19 593.753C989.64 601.253 990.93 608.753 992.51 616.273C993.16 619.333 992.51 620.423 989.21 620.273C983.73 620.053 978.21 620.133 972.74 620.273C969.84 620.373 969.03 619.653 969.74 616.613C971.45 609.003 972.57 601.253 974.33 593.613C974.772 592.025 974.785 590.347 974.367 588.752C973.949 587.157 973.115 585.701 971.95 584.533C967.53 579.533 963.29 574.463 958.95 569.413L959.15 567.844Z" fill="#013573"/>
<path d="M912.92 575.645C912.92 587.995 912.7 600.095 913.03 612.185C913.16 616.835 911.75 618.435 907.19 617.935C904.042 617.67 900.878 617.67 897.73 617.935C894.53 618.125 893.81 616.825 894.12 613.795C895.56 599.395 899.46 586.245 911.75 577.075C912.194 576.645 912.586 576.165 912.92 575.645Z" fill="#C9C9CA"/>
<path d="M871.47 618.954C870.74 619.954 869.69 619.674 868.73 619.674C835.364 619.674 802 619.644 768.64 619.584C767.337 619.502 766.04 619.332 764.76 619.074L765.01 618.733C766.78 617.103 769.01 617.264 771.15 617.264C802.577 617.217 834.004 617.217 865.43 617.264C866.932 617.204 868.434 617.383 869.88 617.794C870.502 618.036 871.05 618.435 871.47 618.954Z" fill="#0092B2"/>
<path d="M871.47 618.954C871.296 618.843 871.107 618.756 870.91 618.694C869.2 616.994 869.32 614.764 869.31 612.634C869.244 601.374 869.244 590.11 869.31 578.844C869.31 576.714 869.18 574.474 870.98 572.844C871.213 572.864 871.447 572.864 871.68 572.844C871.85 588.194 872.29 603.574 871.47 618.954Z" fill="#006A86"/>
<path d="M1046.08 435.523C1056.67 434.193 1067.31 435.213 1077.92 434.983C1072.8 436.643 1067.55 435.503 1062.36 435.663C1056.92 435.823 1051.51 435.583 1046.08 435.523Z" fill="#FDB601"/>
<path d="M563.92 309.804C572.22 326.224 581.54 342.144 588.58 359.194C592.34 368.314 594.01 377.744 591.41 387.444C587.14 403.324 569.79 412.594 552.5 408.444C550.41 407.934 548.36 407.254 546.3 406.654C530.17 396.234 524.82 381.494 531.59 362.654C538.88 342.454 550.68 324.394 560.01 304.564L563.92 309.804Z" fill="#FDFDFD"/>
<path d="M648.74 484.044C649 495.514 647.74 506.614 641.46 516.664C634.27 528.194 624.26 536.664 611.26 539.814C590.26 544.994 581.55 560.124 576.79 579.014C575.522 584.194 574.851 589.502 574.79 594.834C573.55 598.714 574.45 602.714 574.08 606.634C573.9 608.634 574.95 611.164 571.28 611.064C568.44 610.984 566.35 610.454 566.55 606.964C566.504 606.149 566.357 605.342 566.11 604.564C564.85 595.924 564.32 587.194 563.11 578.564C561.2 565.134 558.11 552.074 552.72 539.564C551.72 537.144 549.03 533.894 553.5 531.994C557.23 530.414 560.39 532.464 561.38 537.044C563.89 548.754 569.63 559.554 570.92 572.754C575.68 558.944 583.58 548.644 593.05 539.254C599.32 533.024 603.12 524.804 608.52 517.814C612.52 512.674 616.22 507.364 619.24 504.264C612.53 511.314 605.24 520.714 597.88 530.064C596.26 532.064 594.88 536.244 591.71 534.484C588.54 532.724 587.38 528.824 588.87 524.894C587.28 503.534 614.79 476.274 644.11 478.144C648.92 478.414 648 481.474 648.74 484.044Z" fill="#FDFDFD"/>
<path d="M588.86 524.905C589.542 528.518 590.663 532.034 592.2 535.375C597.49 528.615 602.37 522.185 607.46 515.925C612.568 509.79 618.262 504.166 624.46 499.135C618.61 505.545 613.85 512.735 608.84 519.745C601.31 530.275 594.09 540.965 584.84 550.235C578 557.085 574.42 566.235 570.94 576.625C570.08 573.135 569.32 570.845 568.94 568.485C567.17 556.915 561.56 546.485 559.46 534.945C558.6 530.225 554.55 534.645 551.02 532.715C562.07 556.345 566.27 580.025 566.02 604.565C565.83 605.995 565.63 607.415 565.28 609.915C564.28 604.415 564.86 599.915 564.2 595.495C563.58 591.315 561.41 588.495 559.06 585.655C550.91 575.655 542.59 565.805 534.5 555.765C533.7 554.765 531.5 553.765 532.92 551.705C535.41 550.455 537.33 552.465 539.53 552.875C543.45 553.615 548.08 555.155 550.93 552.065C553.78 548.975 550.61 545.185 549.35 541.885C547.91 538.125 545.35 535.025 542.96 531.795C541.9 530.355 540.43 529.085 540.47 527.045C542.67 526.775 543.81 528.195 544.81 529.795C545.81 531.395 546.99 532.645 548.81 531.165C550.63 529.685 548.81 528.655 548.01 527.495C547.48 526.725 545.57 526.345 547.01 524.835C547.408 524.723 547.825 524.694 548.235 524.751C548.644 524.808 549.038 524.949 549.39 525.165C555.64 528.905 561.04 524.005 561.5 517.285C561.68 514.565 560.8 511.655 562.65 509.155C566.65 510.405 567.46 514.585 569.93 517.225C571.59 519.005 572.49 521.465 574.77 522.705C573.92 524.805 571.9 525.885 570.5 527.515C565.97 532.825 564.82 540.205 567.76 545.665C569.6 549.085 571.34 549.575 574.57 547.415C578.77 544.615 581.5 540.335 584.99 536.815C587.1 531.955 584.99 526.755 586.14 521.755C588.47 521.795 587.51 524.295 588.86 524.905Z" fill="#328919"/>
<path d="M540.57 527.043C546.57 533.423 551.18 540.503 553.28 549.213C554.34 553.603 552.39 554.523 548.88 554.803C543.403 555.368 537.882 554.288 533.02 551.703C522.09 544.173 515.92 533.573 512.94 520.843C512.22 517.753 512.94 516.843 516.22 516.963C525.62 517.413 533.29 521.673 540.57 527.043Z" fill="#FDFDFD"/>
<path d="M562.76 509.154C562.983 512.262 563.026 515.381 562.89 518.494C562.51 522.424 560.75 525.854 556.89 527.494C553.03 529.134 549.89 527.494 547.1 524.824C540.76 515.654 540.71 506.024 545.18 496.174C547.62 490.804 548.61 490.674 552.8 494.584C557.165 498.637 560.568 503.615 562.76 509.154Z" fill="#FDFDFD"/>
<path d="M585.1 536.814C583.03 542.344 578.98 546.134 574.26 549.394C571.18 551.524 569.15 550.534 567.34 547.674C563.58 541.734 564.5 532.264 569.7 526.934C571.23 525.374 572.4 523.174 574.88 522.704C585.22 519.704 585.23 519.704 585.17 530.844C585.17 532.834 585.12 534.824 585.1 536.814Z" fill="#FCFDFC"/>
<path d="M790.74 382.254C795.43 391.254 794.64 395.744 787.63 399.964C782.27 403.184 778.33 402.354 774.91 397.094C765.91 383.274 756.99 369.464 748.21 355.544C745.46 351.194 742.94 347.314 736.77 348.014C733.24 348.414 730.19 345.954 726.9 344.844C719.4 338.844 716.38 331.014 717.45 321.544C717.83 318.184 719.29 315.264 722.7 314.334C726.29 313.334 728.04 316.334 729.7 318.754C731.36 321.174 732.58 323.654 734.79 325.484C737.73 327.894 741.04 328.694 744.49 326.704C747.94 324.714 747.69 321.544 747.07 318.324C746.34 314.484 744.07 311.324 742.18 308.034C740.59 305.274 738.48 301.694 740.66 299.284C743.1 296.594 746.54 299.344 749.18 300.744C756.91 304.844 760.81 311.794 762.77 320.034C765.77 324.424 763.86 328.824 762.1 332.744C760.24 336.894 761.1 339.874 763.62 343.204C771.99 354.324 780.09 365.644 788.24 376.924C789.539 378.443 790.403 380.285 790.74 382.254Z" fill="#FDFDFD"/>
<path d="M852.92 321.924C851.49 324.614 849.99 323.044 848.53 321.924C844.78 319.174 841.03 316.414 836.64 314.704C831.07 312.544 825.87 312.314 820.72 316.344C812.37 322.874 802.81 321.984 795.36 314.134C793.68 312.364 792.61 313.134 791.08 313.764C786.25 315.764 781.32 316.504 776.23 314.764C771.23 310.444 771.85 304.614 772.43 299.034C772.512 298.399 772.726 297.787 773.057 297.239C773.387 296.69 773.829 296.216 774.352 295.847C774.876 295.477 775.47 295.221 776.098 295.093C776.726 294.965 777.374 294.969 778 295.104C786.83 296.454 795.09 293.524 803.61 292.344C816.29 290.584 828.51 292.404 839.29 300.144C846.76 305.604 851.75 312.534 852.92 321.924Z" fill="#FDFDFD"/>
<path d="M822.85 368.954C822.85 384.394 822.85 399.844 823.03 415.284C823.09 419.344 821.87 421.074 817.64 420.804C813.41 420.534 809.01 420.744 804.64 420.744C797.96 420.744 797.96 420.744 797.76 413.904C796.92 405.004 797.61 396.084 797.39 387.174C797.344 384.058 797.093 380.948 796.64 377.864C795.79 372.424 795.95 366.864 800.87 362.864L803.08 361.784C805.34 359.784 808.08 360.264 810.72 360.364C814.72 360.524 816.49 358.974 816.35 354.844C816.18 349.844 816.22 344.844 816.35 339.844C816.41 337.764 816.01 335.424 818.22 333.984C819.5 340.354 819.02 346.834 818.65 353.194C818.37 359.154 820.12 364.084 822.85 368.954Z" fill="#FDB300"/>
<path d="M800.92 362.914C797.4 369.104 797.84 375.914 797.92 382.644C798 393.064 797.92 403.484 797.85 413.904C796.09 410.794 797.09 407.424 797.02 404.184C796.85 396.414 797.02 388.644 797.02 379.754C794.94 382.314 792.58 380.954 790.83 382.254C780.49 368.147 770.187 354.034 759.92 339.914C758.99 338.644 758.32 337.474 759.41 335.914C762.68 331.114 762.8 325.594 762.83 320.074C763.11 319.644 763.11 318.264 763.76 318.984C775.66 332.224 787.48 345.534 799.22 358.914C800.12 359.914 800.36 361.554 800.92 362.914Z" fill="#E06701"/>
<path d="M818.28 334.055C818.21 342.135 818.04 350.225 818.11 358.305C818.11 361.015 817.45 362.175 814.52 361.965C810.73 361.695 806.92 361.855 803.13 361.835C803.01 358.195 802.9 354.555 802.78 350.915C802.84 343.655 803.09 336.395 802.88 329.135C802.77 325.605 803.98 324.305 807.36 324.835C807.52 324.835 807.69 324.835 807.86 324.835C811.08 325.285 815.22 322.835 817.22 325.015C818.92 326.805 818.02 330.955 818.28 334.055Z" fill="#FDFDFC"/>
<path d="M1024.82 301.985C1024.82 309.985 1024.69 317.985 1024.82 325.915C1024.88 329.545 1023.45 330.975 1019.82 330.915C989.394 330.855 958.97 330.855 928.55 330.915C926.55 330.915 924.95 330.505 923.77 328.855C923.77 320.695 923.84 312.545 923.77 304.385C923.7 299.765 925.82 297.705 930.39 297.715C959.85 297.755 989.31 297.755 1018.77 297.715C1022.04 297.735 1023.45 299.645 1024.82 301.985Z" fill="#FDFDFD"/>
<path d="M917.04 312.913C917.04 318.563 916.82 324.213 916.95 329.913C917.08 335.613 919.49 338.623 925.2 340.283C936.69 343.613 948.2 346.813 959.71 350.083C969.4 352.843 971.14 354.783 972.24 364.693C972.48 366.803 973.24 367.543 975.24 367.693C980.05 368.013 981.6 370.943 981.55 375.483C981.41 388.123 981.55 400.763 981.44 413.393C981.44 419.593 979.01 422.043 972.73 422.513C969.084 422.886 965.402 422.68 961.82 421.903C957.58 420.363 956.5 417.203 956.55 412.903C956.7 399.313 956.55 385.723 956.55 372.133C955.55 369.573 957.55 368.633 959.13 367.493C963.13 364.633 963.03 362.233 958.49 360.183C954.73 358.483 950.62 357.753 946.72 356.453C941.16 354.613 935.1 354.203 930.12 350.693C926.52 349.483 922.93 348.233 919.3 347.083C912.3 344.873 909.12 340.793 909.01 333.593C908.91 327.593 908.95 321.593 908.89 315.593C908.89 313.893 908.97 312.263 910.28 310.973C911.59 309.683 913.16 308.503 915.12 308.833C917.49 309.223 916.43 311.523 917.04 312.913Z" fill="#FDFDFD"/>
<path d="M930.12 350.664C940.12 352.664 949.7 355.954 959.37 359.024C961.9 359.824 963.58 361.404 963.79 364.404C964 367.404 961.97 367.464 960.12 368.154C959.256 368.498 958.483 369.039 957.863 369.733C957.244 370.427 956.794 371.256 956.55 372.154C955.08 374.974 956.55 378.064 955.55 381.324C950.14 378.324 947.38 372.864 943.32 368.744C939.04 364.404 935.24 359.554 931.32 354.854C930.4 353.674 928.53 352.624 930.12 350.664Z" fill="#E98901"/>
<path d="M1037.03 329.885C1034.96 331.515 1032.89 332.545 1030.82 329.885C1030.82 323.391 1030.79 316.908 1030.74 310.435C1030.74 308.705 1030.74 307.055 1033.18 306.975C1035.62 306.895 1037.01 307.975 1037.03 310.425C1037.07 316.915 1037.04 323.415 1037.03 329.885Z" fill="#FDFCFB"/>
<path d="M870.98 572.814C870.98 588.114 870.957 603.411 870.91 618.704C842.243 618.751 813.603 618.804 784.99 618.864C778.33 618.864 771.67 618.784 764.99 618.734C756.537 607.988 748.083 597.238 739.63 586.484C737.808 583.92 735.522 581.719 732.89 579.994C728.965 576.563 726.158 572.035 724.83 566.994C724.18 565.994 723.54 564.994 722.9 563.994C728.82 561.994 729.74 557.494 729.54 551.894C729.34 546.094 732.22 542.694 737.25 543.054C748.67 543.884 760.12 542.724 771.5 543.834C776.63 546.884 779.42 552.154 783.23 556.444C792.78 567.214 802.4 577.924 811.42 589.154C813.08 591.224 816.08 591.844 817.12 594.554C818.004 596.159 819.119 597.625 820.43 598.904C823.43 601.804 826.81 602.984 830.9 601.504C832.743 600.909 834.352 599.75 835.5 598.191C836.649 596.632 837.278 594.751 837.3 592.814C837.88 586.521 837.88 580.188 837.3 573.894C836.39 566.414 836.68 558.964 836.54 551.494C836.72 548.174 836.54 544.844 836.71 541.494C836.78 540.014 836.71 538.294 838.46 537.674C840.21 537.054 841.21 538.424 842.22 539.514C846.63 544.284 850.4 549.574 854.64 554.514C856.711 556.671 858.66 558.942 860.48 561.314C863.09 565.114 866.77 566.314 870.92 566.934L870.98 572.814Z" fill="#015670"/>
<path d="M837.8 551.125C838.26 564.225 838.8 577.325 839.16 590.425C839.32 595.425 837.65 599.615 833.16 602.145C826.16 606.025 818.41 602.235 815.79 593.835C813.6 587.705 814.2 581.345 814.74 575.115C815.74 563.885 815.42 552.595 816.47 541.375C816.53 540.715 816.36 541.525 816.47 540.885C818.31 531.885 817.62 523.885 809.28 518.025C807.85 517.025 807.42 514.935 806.69 513.265C803.95 507.205 804.32 500.775 804.56 494.385C804.62 492.585 804.89 490.735 806.95 489.915C809.04 486.225 811.1 482.565 814.38 479.655C817.38 476.995 819.38 476.865 820.92 480.895C822.57 483.895 820.69 486.705 820.07 489.505C819.28 493.065 819.19 496.395 821.07 499.605C821.993 501.303 823.516 502.596 825.341 503.23C827.167 503.864 829.163 503.795 830.94 503.035C834.58 501.475 835.18 498.465 834.85 494.785C834.48 490.625 830.85 487.355 831.78 482.925C833.26 476.795 834.65 476.325 839.44 480.315C844.23 484.305 846.89 489.315 848.75 495.015C851.92 501.695 850.34 508.195 848 514.645C847.456 516.402 846.503 518.006 845.22 519.325C835.45 528.255 837.61 539.905 837.8 551.125Z" fill="#FDFDFD"/>
<path d="M772.92 544.805C760.92 544.635 749 544.385 737.04 544.365C733.04 544.365 730.38 546.255 730.89 550.885C730.995 552.379 731.025 553.878 730.98 555.375C731.07 562.975 730.69 563.375 722.91 563.935C709.5 562.695 709 562.125 709.03 548.475C709.03 543.655 708.91 538.825 709.03 534.015C709.26 525.735 713.75 521.535 721.91 521.635C728.91 521.715 735.91 521.555 742.91 521.755C745.81 521.845 746.84 520.835 746.57 518.045C746.465 516.55 746.465 515.05 746.57 513.555C746.85 507.555 749.35 504.975 755.47 504.455C758.28 504.215 761.1 504.105 763.92 503.945C769.29 502.455 773.24 505.195 774.15 511.035C774.57 513.765 773.85 516.625 775.15 519.235C775.537 519.593 775.967 519.902 776.43 520.155C782.07 521.155 787.82 519.765 793.43 520.995C797.09 522.595 798.37 525.615 798.43 529.365C798.43 531.675 798.51 533.995 798.43 536.305C798.25 542.985 795.94 545.885 789.36 546.165C783.92 546.415 778.19 547.875 772.92 544.805Z" fill="#FDFDFD"/>
<path d="M837.8 551.123C836.32 543.223 837.12 535.213 836.7 527.263C836.683 526.766 836.799 526.273 837.037 525.835C837.274 525.397 837.624 525.031 838.05 524.773C848.28 517.263 850.37 506.773 848.78 495.013C849.1 493.163 849.98 493.193 850.94 494.503C856.664 502.446 862.862 510.037 869.5 517.233C870.89 518.713 870.99 520.843 870.98 522.903C870.91 537.563 870.91 552.223 870.89 566.903C866.52 568.723 863.89 567.063 860.75 563.563C853.89 555.903 847.75 547.693 840.95 539.973C840.32 539.253 839.95 537.973 838.73 538.523C837.51 539.073 837.96 540.233 837.94 541.173C837.86 544.473 837.84 547.793 837.8 551.123Z" fill="#006A86"/>
<path d="M773.99 520.615C771.79 518.815 772.99 516.335 772.86 514.205C772.57 506.825 771.25 505.205 763.86 503.945C764.896 501.995 765.204 499.741 764.73 497.585C761.43 489.965 763.51 486.325 771.45 486.395C775.89 486.395 780.35 485.465 784.77 486.605C784.937 487.832 785.385 489.005 786.078 490.032C786.772 491.059 787.693 491.912 788.77 492.525C791.301 494.379 793.718 496.382 796.01 498.525C797.34 499.645 798.48 501.765 800.56 500.325C802.23 499.185 802.79 497.395 802.56 495.125C802.32 492.355 802.27 489.015 806.86 489.915C804.49 497.685 805.1 505.335 807.72 512.915C807.02 517.415 800.22 523.055 795.94 521.645C790.31 519.795 784.83 521.235 779.31 520.915C777.544 520.712 775.768 520.612 773.99 520.615Z" fill="#007E9C"/>
<path d="M724.85 566.943C728.07 570.943 730.46 575.493 732.91 579.943C733.237 582.414 733.431 584.901 733.49 587.393C733.525 589.5 732.909 591.566 731.726 593.309C730.543 595.053 728.851 596.388 726.88 597.133C723.06 598.753 719.65 597.443 716.88 594.713C713.53 591.443 712.69 587.403 714.88 583.293C717.92 577.723 719.92 571.413 724.85 566.943Z" fill="#FCFDFD"/>
<path d="M831.81 482.925C833.253 485.914 834.545 488.975 835.68 492.095C836.98 496.215 837.32 500.415 833.3 503.455C831.925 504.573 830.232 505.23 828.462 505.332C826.692 505.435 824.935 504.977 823.44 504.025C819.19 501.495 817.55 497.255 818.22 492.465C818.77 488.565 819.98 484.745 820.9 480.895C824.39 482.335 827.57 485.505 831.81 482.925Z" fill="#017D9F"/>
<path d="M992.92 383.693L997.22 399.933H998.02V378.273C1012.25 384.226 1027.99 385.572 1043.02 382.123C1046.09 381.379 1049.05 380.222 1051.81 378.683C1055.55 376.743 1057.19 377.683 1056.81 382.033C1056.58 384.833 1055.53 387.563 1055.34 390.363C1055.02 394.833 1055.05 399.363 1055.02 403.823C1054.95 413.543 1051.2 419.123 1042.02 422.193C1031.67 425.693 1020.44 425.534 1010.2 421.743C1008.66 421.203 1006.78 420.583 1005.87 419.383C998.98 410.293 990.38 402.003 990.79 389.253C990.81 387.413 990.83 385.533 992.92 383.693Z" fill="#FDFDFD"/>
<path d="M1025.82 380.003C1018.11 380.093 1010.57 379.203 1003.51 375.813C1000.51 374.383 997.95 372.463 997.85 368.873C997.74 364.983 1000.5 362.713 1003.71 361.613C1019.37 356.233 1034.97 356.223 1050.25 363.123C1052.86 364.303 1055.15 366.203 1054.96 369.543C1054.79 372.603 1052.52 374.113 1050.06 375.303C1042.4 378.993 1034.19 379.903 1025.82 380.003Z" fill="#FDFBF7"/>
<path d="M596.92 576.295C586.11 576.295 583.47 571.615 588.92 562.175C594.81 551.935 609.68 546.935 620.81 551.335C622.81 552.135 623.57 552.955 623.03 555.335C620.34 566.755 608.57 576.325 596.92 576.295Z" fill="#FDFDFD"/>
<path d="M560.21 323.625C568.14 340.795 578.12 355.625 582.39 373.125C585.05 384.005 579.76 394.375 569.8 397.765C576.8 381.825 568.1 369.545 561.05 356.675C550.05 368.455 546.95 384.025 552.81 397.165C545.73 396.455 539.64 388.965 538.9 379.875C538.472 376.058 538.781 372.195 539.81 368.495C544.58 353.025 552.92 339.245 560.21 323.625Z" fill="#CE201E"/>
<path d="M773.99 520.614C780.91 520.224 787.77 517.854 794.78 520.274C798.47 521.554 805.44 517.434 807.78 512.924C809.49 515.464 810.52 518.524 813.28 520.284C818.28 523.434 819.03 528.014 818.6 533.544C817.067 553.617 816.11 573.714 815.73 593.834C807.87 589.234 803.73 581.054 797.64 574.734C789.77 566.564 782.8 557.534 775.43 548.894C774.37 547.654 772.87 546.714 772.92 544.804C778.53 544.724 784.14 544.694 789.75 544.544C795.36 544.394 797.39 542.404 797.14 537.004C796.89 531.604 799.24 525.474 792.89 521.814C786.8 520.614 780.59 522.054 774.49 521.024C774.429 521.04 774.365 521.041 774.304 521.027C774.242 521.014 774.185 520.986 774.136 520.946C774.087 520.906 774.049 520.855 774.023 520.797C773.998 520.74 773.987 520.677 773.99 520.614Z" fill="#00708D"/>
<path d="M826.92 583.725C830.61 584.045 832.31 586.475 832.59 589.635C832.87 592.795 831.3 595.405 827.85 595.385C824.4 595.365 821.97 593.195 821.9 589.385C821.84 586.105 823.79 584.315 826.92 583.725Z" fill="#065879"/>
<path d="M774.5 521.023C780.64 521.213 786.84 519.813 792.9 521.813C786.79 521.133 780.58 522.543 774.5 521.023Z" fill="#007E9C"/>
<path d="M1025.99 376.953C1019.99 376.953 1013.99 376.623 1008.43 374.063C1006.18 373.063 1003.63 371.733 1003.66 368.853C1003.66 365.853 1006.56 364.943 1008.85 364.193C1020.31 360.34 1032.76 360.626 1044.03 365.003C1046.3 365.863 1049.13 366.923 1049.03 369.883C1048.93 372.843 1046.03 373.603 1043.69 374.423C1037.97 376.413 1032.01 376.963 1025.99 376.953Z" fill="#EB8A01"/>
<path d="M449.323 665.498C459.546 665.498 467.175 667.715 472.211 672.15C477.323 676.585 479.878 682.898 479.878 691.091C479.878 694.775 479.352 698.307 478.3 701.69C477.247 704.997 475.519 708.004 473.113 710.71C470.783 713.341 467.664 715.445 463.755 717.024C459.846 718.527 455.036 719.279 449.323 719.279H443.235V746H421.474V665.498H449.323ZM448.872 683.086H443.235V701.577H447.519C449.398 701.577 451.127 701.276 452.706 700.675C454.359 699.999 455.675 698.946 456.652 697.518C457.629 696.015 458.118 694.061 458.118 691.655C458.118 689.1 457.366 687.033 455.863 685.454C454.359 683.876 452.029 683.086 448.872 683.086ZM540.518 746H492.713V665.498H540.518V682.974H514.473V695.601H538.602V713.077H514.473V728.298H540.518V746ZM629.909 705.636C629.909 711.875 629.157 717.55 627.654 722.661C626.15 727.697 623.82 732.057 620.663 735.74C617.506 739.423 613.447 742.242 608.486 744.196C603.601 746.15 597.7 747.127 590.785 747.127C584.02 747.127 578.157 746.15 573.196 744.196C568.31 742.242 564.251 739.423 561.019 735.74C557.862 732.057 555.494 727.697 553.916 722.661C552.413 717.55 551.661 711.837 551.661 705.523C551.661 697.18 553.052 689.926 555.833 683.763C558.614 677.524 562.898 672.713 568.686 669.331C574.474 665.949 581.878 664.257 590.898 664.257C600.068 664.257 607.509 665.986 613.222 669.444C619.009 672.826 623.219 677.637 625.85 683.876C628.556 690.039 629.909 697.293 629.909 705.636ZM574.549 705.636C574.549 710.447 575.075 714.618 576.127 718.151C577.255 721.609 579.021 724.277 581.427 726.156C583.832 728.035 586.951 728.975 590.785 728.975C594.769 728.975 597.926 728.035 600.256 726.156C602.661 724.277 604.39 721.609 605.442 718.151C606.494 714.618 607.021 710.447 607.021 705.636C607.021 698.345 605.818 692.595 603.413 688.386C601.007 684.176 596.836 682.072 590.898 682.072C586.989 682.072 583.832 683.049 581.427 685.003C579.021 686.882 577.255 689.588 576.127 693.121C575.075 696.579 574.549 700.75 574.549 705.636ZM672.288 665.498C682.51 665.498 690.14 667.715 695.176 672.15C700.287 676.585 702.843 682.898 702.843 691.091C702.843 694.775 702.317 698.307 701.264 701.69C700.212 704.997 698.483 708.004 696.078 710.71C693.748 713.341 690.628 715.445 686.72 717.024C682.811 718.527 678 719.279 672.288 719.279H666.199V746H644.439V665.498H672.288ZM671.837 683.086H666.199V701.577H670.484C672.363 701.577 674.092 701.276 675.67 700.675C677.324 699.999 678.639 698.946 679.616 697.518C680.594 696.015 681.082 694.061 681.082 691.655C681.082 689.1 680.331 687.033 678.827 685.454C677.324 683.876 674.994 683.086 671.837 683.086ZM715.678 746V665.498H737.438V728.411H768.444V746H715.678ZM829.106 746H781.301V665.498H829.106V682.974H803.061V695.601H827.189V713.077H803.061V728.298H829.106V746ZM925.122 721.534C925.122 725.893 923.994 730.027 921.739 733.936C919.56 737.845 916.14 741.039 911.479 743.52C906.894 745.925 900.919 747.127 893.552 747.127C889.869 747.127 886.637 746.94 883.856 746.564C881.15 746.263 878.594 745.737 876.189 744.985C873.784 744.234 871.303 743.256 868.748 742.054V722.661C873.107 724.841 877.504 726.532 881.939 727.735C886.374 728.862 890.395 729.426 894.003 729.426C896.183 729.426 897.95 729.163 899.303 728.637C900.656 728.111 901.67 727.396 902.347 726.495C903.023 725.593 903.361 724.578 903.361 723.45C903.361 722.022 902.873 720.82 901.896 719.842C900.919 718.865 899.378 717.85 897.273 716.798C895.168 715.746 892.35 714.43 888.817 712.852C885.81 711.499 883.104 710.071 880.699 708.567C878.294 707.064 876.227 705.373 874.498 703.494C872.844 701.615 871.566 699.435 870.664 696.954C869.762 694.399 869.311 691.392 869.311 687.935C869.311 682.748 870.589 678.426 873.145 674.968C875.701 671.436 879.233 668.805 883.743 667.076C888.328 665.272 893.628 664.37 899.641 664.37C904.902 664.37 909.638 664.971 913.847 666.174C918.056 667.302 921.815 668.617 925.122 670.12L918.47 686.92C915.012 685.341 911.592 684.101 908.21 683.199C904.902 682.222 901.821 681.733 898.964 681.733C897.085 681.733 895.544 681.959 894.342 682.41C893.139 682.861 892.237 683.5 891.636 684.327C891.109 685.078 890.846 685.943 890.846 686.92C890.846 688.198 891.335 689.325 892.312 690.302C893.289 691.279 894.905 692.369 897.16 693.572C899.49 694.699 902.647 696.165 906.631 697.969C910.54 699.698 913.847 701.615 916.553 703.719C919.334 705.749 921.439 708.192 922.867 711.048C924.37 713.829 925.122 717.324 925.122 721.534ZM985.346 746H937.541V665.498H985.346V682.974H959.301V695.601H983.43V713.077H959.301V728.298H985.346V746ZM1025.8 665.498C1033.09 665.498 1039.15 666.4 1043.96 668.204C1048.84 670.008 1052.49 672.676 1054.89 676.209C1057.37 679.666 1058.61 684.026 1058.61 689.288C1058.61 692.52 1058.05 695.489 1056.92 698.195C1055.87 700.901 1054.33 703.306 1052.3 705.411C1050.27 707.515 1047.83 709.357 1044.97 710.935L1068.42 746H1043.73L1026.71 716.685H1021.18V746H999.421V665.498H1025.8ZM1025.47 681.959H1021.18V700.337H1025.24C1027.49 700.337 1029.45 700.036 1031.1 699.435C1032.83 698.758 1034.18 697.706 1035.16 696.278C1036.14 694.775 1036.63 692.783 1036.63 690.302C1036.63 688.573 1036.25 687.108 1035.5 685.905C1034.75 684.627 1033.55 683.65 1031.89 682.974C1030.24 682.297 1028.1 681.959 1025.47 681.959ZM1145.29 665.498L1118.91 746H1093.31L1067.04 665.498H1091.51L1102.45 706.313C1102.82 707.816 1103.27 709.77 1103.8 712.175C1104.32 714.581 1104.81 716.986 1105.26 719.391C1105.79 721.797 1106.09 723.751 1106.17 725.254C1106.32 723.751 1106.58 721.834 1106.96 719.504C1107.41 717.099 1107.86 714.731 1108.31 712.401C1108.83 709.996 1109.32 708.041 1109.77 706.538L1120.94 665.498H1145.29ZM1201.81 746H1154.01V665.498H1201.81V682.974H1175.77V695.601H1199.9V713.077H1175.77V728.298H1201.81V746Z" fill="#6A6A6B"/>
<path fill-rule="evenodd" clip-rule="evenodd" d="M413 823.734L413.036 817L605 818.266L604.964 825L413 823.734Z" fill="#25532C"/>
<path fill-rule="evenodd" clip-rule="evenodd" d="M1005 823.336L1005.04 817L1205.83 818.191L1205.79 824.527L1005 823.336Z" fill="#25532C"/>
<path d="M630.836 793.73V837H621.687V793.73H630.836ZM684.075 793.73V837H676.173L657.348 809.766H657.031V837H647.882V793.73H655.911L674.588 820.943H674.969V793.73H684.075ZM716.492 837H701.153V793.73H716.619C720.971 793.73 724.718 794.596 727.859 796.328C731 798.047 733.415 800.519 735.106 803.744C736.81 806.97 737.662 810.829 737.662 815.323C737.662 819.83 736.81 823.703 735.106 826.943C733.415 830.183 730.986 832.669 727.816 834.401C724.661 836.134 720.886 837 716.492 837ZM710.301 829.161H716.111C718.816 829.161 721.091 828.683 722.936 827.725C724.795 826.753 726.19 825.253 727.119 823.224C728.063 821.182 728.535 818.548 728.535 815.323C728.535 812.125 728.063 809.512 727.119 807.484C726.19 805.456 724.802 803.963 722.957 803.005C721.112 802.047 718.837 801.568 716.133 801.568H710.301V829.161ZM763.107 793.73V837H753.958V793.73H763.107ZM787.611 837H777.808L792.746 793.73H804.535L819.452 837H809.648L798.809 803.618H798.471L787.611 837ZM786.999 819.992H810.155V827.133H786.999V819.992ZM857.469 837V793.73H866.617V829.457H885.168V837H857.469ZM900.746 837V793.73H909.894V829.457H928.445V837H900.746ZM944.023 837V793.73H961.094C964.376 793.73 967.172 794.356 969.482 795.61C971.792 796.85 973.553 798.575 974.764 800.786C975.989 802.984 976.602 805.519 976.602 808.393C976.602 811.266 975.982 813.801 974.743 815.999C973.503 818.196 971.707 819.907 969.355 821.133C967.017 822.358 964.186 822.971 960.862 822.971H949.981V815.639H959.383C961.143 815.639 962.594 815.337 963.735 814.731C964.89 814.111 965.749 813.259 966.313 812.174C966.89 811.076 967.179 809.815 967.179 808.393C967.179 806.956 966.89 805.702 966.313 804.632C965.749 803.547 964.89 802.709 963.735 802.118C962.58 801.512 961.115 801.209 959.341 801.209H953.171V837H944.023Z" fill="#2A5730"/>
<path d="M466.53 859.673H481.3V863.415H470.439V870.266H479.896V874.008H470.439V884H466.53V859.673ZM484.889 884L495.649 858.67H495.883L506.643 884H502.165L494.579 864.785L497.386 862.881L488.731 884H484.889ZM491.639 874.977H499.959L501.296 878.286H490.469L491.639 874.977ZM530.712 882.095C530.378 882.34 529.854 882.641 529.141 882.997C528.429 883.354 527.582 883.666 526.602 883.933C525.644 884.178 524.574 884.29 523.394 884.267C521.5 884.245 519.796 883.911 518.281 883.265C516.766 882.596 515.485 881.705 514.438 880.591C513.391 879.455 512.578 878.163 511.999 876.715C511.442 875.245 511.163 873.685 511.163 872.037C511.163 870.188 511.453 868.495 512.032 866.957C512.611 865.42 513.436 864.095 514.505 862.981C515.574 861.845 516.844 860.965 518.314 860.341C519.785 859.717 521.389 859.405 523.126 859.405C524.664 859.405 526.034 859.617 527.237 860.04C528.462 860.441 529.487 860.898 530.311 861.41L528.774 865.086C528.15 864.641 527.37 864.206 526.435 863.783C525.499 863.36 524.441 863.148 523.26 863.148C522.191 863.148 521.166 863.371 520.186 863.816C519.206 864.24 518.348 864.852 517.613 865.654C516.877 866.434 516.287 867.347 515.842 868.394C515.418 869.441 515.207 870.578 515.207 871.803C515.207 873.073 515.396 874.242 515.775 875.312C516.176 876.359 516.733 877.272 517.446 878.052C518.181 878.832 519.05 879.444 520.052 879.89C521.077 880.313 522.213 880.525 523.461 880.525C524.73 880.525 525.833 880.335 526.769 879.957C527.727 879.556 528.495 879.11 529.075 878.62L530.712 882.095ZM539.244 859.673H543.153V884H539.244V859.673ZM553.191 859.673H557.101V880.257H569.098V884H553.191V859.673ZM577.582 859.673H581.491V884H577.582V859.673ZM589.791 859.673H606.065V863.415H599.783V884H595.907V863.415H589.791V859.673ZM620.769 876.114L611.78 859.673H616.559L623.409 872.772L622.239 872.839L628.99 859.673H633.768L624.645 876.114V884H620.769V876.114ZM655.269 884V858.804H655.302L668.402 877.35L666.731 876.982L679.763 858.804H679.83V884H675.954V867.592L676.221 869.597L667.433 882.028H667.366L658.377 869.597L659.045 867.759V884H655.269ZM687.301 884L698.061 858.67H698.295L709.055 884H704.578L696.992 864.785L699.799 862.881L691.144 884H687.301ZM694.051 874.977H702.372L703.709 878.286H692.882L694.051 874.977ZM737.935 884.869L719.255 866.757L720.391 867.225L720.491 884H716.548V858.837H716.715L735.128 876.949L734.226 876.682L734.159 859.673H738.035V884.869H737.935ZM745.545 884L756.306 858.67H756.54L767.3 884H762.822L755.236 864.785L758.043 862.881L749.388 884H745.545ZM752.296 874.977H760.616L761.953 878.286H751.126L752.296 874.977ZM793.194 881.761C792.882 882.073 792.415 882.374 791.791 882.663C791.189 882.953 790.51 883.22 789.752 883.465C788.995 883.71 788.215 883.9 787.413 884.033C786.611 884.189 785.854 884.267 785.141 884.267C783.18 884.267 781.409 883.967 779.828 883.365C778.268 882.764 776.92 881.939 775.784 880.892C774.67 879.823 773.813 878.564 773.211 877.116C772.632 875.668 772.342 874.098 772.342 872.404C772.342 870.288 772.676 868.428 773.345 866.824C774.013 865.198 774.927 863.839 776.085 862.747C777.243 861.633 778.569 860.798 780.062 860.241C781.576 859.684 783.169 859.405 784.84 859.405C786.31 859.405 787.669 859.572 788.917 859.907C790.187 860.241 791.267 860.664 792.158 861.176L790.889 864.785C790.465 864.54 789.919 864.306 789.251 864.084C788.583 863.839 787.903 863.649 787.213 863.516C786.544 863.382 785.921 863.315 785.341 863.315C783.938 863.315 782.679 863.516 781.565 863.917C780.474 864.295 779.538 864.863 778.758 865.621C777.979 866.378 777.377 867.303 776.954 868.394C776.553 869.464 776.352 870.689 776.352 872.07C776.352 873.318 776.564 874.454 776.987 875.479C777.433 876.504 778.045 877.383 778.825 878.119C779.627 878.854 780.563 879.422 781.632 879.823C782.724 880.202 783.927 880.391 785.241 880.391C785.999 880.391 786.734 880.324 787.447 880.19C788.16 880.057 788.761 879.845 789.251 879.556V875.512H784.706V871.769H793.194V881.761ZM802.446 859.673H818.586V863.415H806.356V869.898H817.25V873.674H806.356V880.257H819.054V884H802.446V859.673ZM827.783 884V858.804H827.816L840.915 877.35L839.245 876.982L852.277 858.804H852.344V884H848.468V867.592L848.735 869.597L839.946 882.028H839.88L830.89 869.597L831.559 867.759V884H827.783ZM862.355 859.673H878.495V863.415H866.264V869.898H877.158V873.674H866.264V880.257H878.963V884H862.355V859.673ZM909.078 884.869L890.398 866.757L891.534 867.225L891.634 884H887.691V858.837H887.858L906.271 876.949L905.369 876.682L905.302 859.673H909.178V884.869H909.078ZM917.491 859.673H933.765V863.415H927.482V884H923.606V863.415H917.491V859.673ZM968.863 864.618C967.994 864.173 967.07 863.794 966.089 863.482C965.109 863.148 964.173 862.981 963.282 862.981C962.079 862.981 961.121 863.248 960.408 863.783C959.718 864.318 959.373 865.053 959.373 865.988C959.373 866.657 959.618 867.247 960.108 867.759C960.598 868.25 961.222 868.684 961.979 869.063C962.736 869.419 963.538 869.764 964.385 870.099C965.12 870.366 965.844 870.689 966.557 871.068C967.292 871.424 967.949 871.87 968.529 872.404C969.108 872.939 969.565 873.607 969.899 874.409C970.255 875.189 970.433 876.158 970.433 877.317C970.433 878.586 970.11 879.756 969.464 880.825C968.818 881.872 967.894 882.708 966.691 883.332C965.488 883.955 964.017 884.267 962.28 884.267C961.277 884.267 960.286 884.156 959.306 883.933C958.348 883.71 957.434 883.41 956.566 883.031C955.697 882.63 954.895 882.184 954.16 881.694L955.897 878.653C956.432 879.054 957.044 879.422 957.735 879.756C958.426 880.09 959.139 880.358 959.874 880.558C960.609 880.736 961.3 880.825 961.946 880.825C962.636 880.825 963.316 880.714 963.984 880.491C964.675 880.268 965.243 879.901 965.688 879.388C966.156 878.876 966.39 878.197 966.39 877.35C966.39 876.659 966.19 876.069 965.789 875.579C965.388 875.089 964.864 874.666 964.218 874.309C963.594 873.93 962.904 873.596 962.146 873.307C961.389 873.017 960.609 872.694 959.807 872.338C959.027 871.981 958.303 871.547 957.635 871.034C956.967 870.5 956.421 869.854 955.997 869.096C955.574 868.339 955.363 867.403 955.363 866.289C955.363 864.952 955.674 863.794 956.298 862.814C956.922 861.834 957.78 861.054 958.871 860.475C959.985 859.895 961.266 859.584 962.714 859.539C964.43 859.539 965.889 859.751 967.092 860.174C968.317 860.575 969.398 861.065 970.333 861.644L968.863 864.618ZM978.889 859.673H995.029V863.415H982.799V869.898H993.693V873.674H982.799V880.257H995.497V884H978.889V859.673ZM1011.08 859.673C1012.41 859.673 1013.64 859.851 1014.75 860.207C1015.87 860.541 1016.81 861.043 1017.59 861.711C1018.37 862.379 1018.97 863.204 1019.4 864.184C1019.84 865.142 1020.07 866.245 1020.07 867.492C1020.07 868.45 1019.92 869.408 1019.63 870.366C1019.34 871.324 1018.86 872.193 1018.19 872.972C1017.55 873.752 1016.69 874.376 1015.62 874.844C1014.55 875.312 1013.23 875.546 1011.64 875.546H1008.14V884H1004.23V859.673H1011.08ZM1011.61 871.803C1012.48 871.803 1013.2 871.669 1013.78 871.402C1014.36 871.112 1014.81 870.756 1015.12 870.333C1015.45 869.909 1015.69 869.464 1015.82 868.996C1015.98 868.506 1016.06 868.049 1016.06 867.626C1016.06 867.225 1015.99 866.79 1015.85 866.323C1015.72 865.832 1015.5 865.376 1015.19 864.952C1014.87 864.507 1014.43 864.139 1013.85 863.85C1013.29 863.56 1012.59 863.415 1011.74 863.415H1008.14V871.803H1011.61ZM1015.82 874.109L1022.04 884H1017.53L1011.18 874.209L1015.82 874.109ZM1031.45 859.673L1039.1 878.72L1036.86 878.286L1043.98 859.673H1048.59L1037.7 885.136L1026.8 859.673H1031.45ZM1056.5 859.673H1060.41V884H1056.5V859.673ZM1088.49 882.095C1088.16 882.34 1087.63 882.641 1086.92 882.997C1086.21 883.354 1085.36 883.666 1084.38 883.933C1083.42 884.178 1082.35 884.29 1081.17 884.267C1079.28 884.245 1077.57 883.911 1076.06 883.265C1074.54 882.596 1073.26 881.705 1072.22 880.591C1071.17 879.455 1070.36 878.163 1069.78 876.715C1069.22 875.245 1068.94 873.685 1068.94 872.037C1068.94 870.188 1069.23 868.495 1069.81 866.957C1070.39 865.42 1071.21 864.095 1072.28 862.981C1073.35 861.845 1074.62 860.965 1076.09 860.341C1077.56 859.717 1079.17 859.405 1080.9 859.405C1082.44 859.405 1083.81 859.617 1085.02 860.04C1086.24 860.441 1087.27 860.898 1088.09 861.41L1086.55 865.086C1085.93 864.641 1085.15 864.206 1084.21 863.783C1083.28 863.36 1082.22 863.148 1081.04 863.148C1079.97 863.148 1078.94 863.371 1077.96 863.816C1076.98 864.24 1076.13 864.852 1075.39 865.654C1074.66 866.434 1074.07 867.347 1073.62 868.394C1073.2 869.441 1072.99 870.578 1072.99 871.803C1072.99 873.073 1073.17 874.242 1073.55 875.312C1073.95 876.359 1074.51 877.272 1075.22 878.052C1075.96 878.832 1076.83 879.444 1077.83 879.89C1078.86 880.313 1079.99 880.525 1081.24 880.525C1082.51 880.525 1083.61 880.335 1084.55 879.957C1085.51 879.556 1086.27 879.11 1086.85 878.62L1088.49 882.095ZM1097.02 859.673H1113.16V863.415H1100.93V869.898H1111.83V873.674H1100.93V880.257H1113.63V884H1097.02V859.673Z" fill="#FF8800"/>
</svg>
